<svg width="112" height="112" viewBox="0 0 112 112" fill="none" xmlns="http://www.w3.org/2000/svg">
<circle cx="56" cy="56" r="55.5" fill="#FAB89B" fill-opacity="0.22" stroke="#C07858"/>
<path d="M79.0781 37.8438H77.4375V34.5625H67.5938V54.3594H77.4375V41.125H79.0781C79.9833 41.125 80.7188 41.8604 80.7188 42.7656V60.9219H84V42.7656C84 40.0516 81.7922 37.8438 79.0781 37.8438Z" fill="#C07858"/>
<path d="M67.5938 57.6406H77.4375V84H67.5938V57.6406Z" fill="#C07858"/>
<path d="M46.1562 28C44.0163 28 42.2135 29.3741 41.5356 31.2812H36.3125V37.8438H56V31.2812H50.7769C50.099 29.3741 48.2962 28 46.1562 28Z" fill="#C07858"/>
<path d="M64.3125 34.5625H59.2812V41.125H33.0312V34.5625H28V84H64.3125V34.5625ZM39.5938 79.6481L35.1526 75.2069L37.4725 72.887L39.5938 75.0082L44.9963 69.6056L47.3163 71.9255L39.5938 79.6481ZM39.5938 69.8043L35.1526 65.3632L37.4725 63.0432L39.5938 65.1644L44.9963 59.7618L47.3163 62.0818L39.5938 69.8043ZM47.7969 56H44.5156V52.7188H41.2344V49.4375H44.5156V46.1562H47.7969V49.4375H51.0781V52.7188H47.7969V56ZM57.6406 75.6875H51.0781V72.4062H57.6406V75.6875ZM57.6406 65.8438H51.0781V62.5625H57.6406V65.8438Z" fill="#C07858"/>
</svg>
