<svg width="112" height="112" viewBox="0 0 112 112" fill="none" xmlns="http://www.w3.org/2000/svg">
<circle cx="56" cy="56" r="55.5" fill="#FAB89B" fill-opacity="0.22" stroke="#C07858"/>
<path d="M83.8308 28H69.1905V32.9196H78.3645V78.3215H56.6309V84H83.8308V28Z" fill="#C07858"/>
<path d="M68.9981 58.8853L65.1965 66.6099L61.2523 55.8403L58.3678 60.798H56.6309V75.0017V75.0414H75.0845V58.8853H68.9981Z" fill="#C07858"/>
<path d="M42.941 32.9196H52.3336V28H37.6934V48.2694H42.941V32.9196Z" fill="#C07858"/>
<path d="M55.6133 28H65.9112V37.2963H55.6133V28Z" fill="#C07858"/>
<path d="M56.6315 57.2614L61.9307 48.1534L65.64 58.2819L66.9572 55.6055H75.0851V36.1997H69.1911V40.5763H52.3333V36.1997H46.2207V48.2695H56.6315V57.2614Z" fill="#C07858"/>
<path d="M32.4211 75.0019V51.4414H31.7485C29.772 51.4414 28.1699 53.0435 28.1699 55.0199V75.7461C29.0356 75.272 30.0283 75.0019 31.083 75.0019H32.4211Z" fill="#C07858"/>
<path d="M53.4599 75.0019V51.4414H35.7031V75.002H53.4599V75.0019ZM39.8593 62.0229V58.7428H42.7222V55.8801H46.0022V58.7428H48.8651V62.0229H46.0021V64.8857H42.722V62.0229H39.8593Z" fill="#C07858"/>
<path d="M53.4592 78.1736H31.083C29.4741 78.1736 28.1699 79.4779 28.1699 81.0867C28.1699 82.6955 29.4741 83.9999 31.083 83.9999H53.4592V78.1736Z" fill="#C07858"/>
</svg>
