<svg width="112" height="112" viewBox="0 0 112 112" fill="none" xmlns="http://www.w3.org/2000/svg">
<circle cx="56" cy="56" r="55.5" fill="#FAB89B" fill-opacity="0.22" stroke="#C07858"/>
<path d="M47.0724 61.2965C46.1048 61.5951 45.162 61.9469 44.2489 62.3508V72.1112C46.4121 72.8706 47.9657 74.9136 47.9657 77.3097V80.2832H44.2489V77.3097C44.2489 76.3186 43.4151 75.5133 42.3905 75.5133C41.3659 75.5133 40.5321 76.3186 40.5321 77.3097V80.2832H36.8153V77.3097C36.8153 74.9136 38.3689 72.8706 40.5321 72.1112V64.369C33.9531 68.6358 29.5048 76.1698 29.0137 84H53.1692V68.5467L47.3041 61.2246L47.0724 61.2965Z" fill="#C07858"/>
<path d="M69.3963 64.291C67.3349 62.9475 65.0746 61.9154 62.6825 61.2036L56.8867 68.5394V84.0001H65.6931C59.7483 78.0568 61.7903 67.6392 69.3963 64.291Z" fill="#C07858"/>
<path d="M51.7539 60.832L55.0185 64.9081L58.2385 60.832H51.7539Z" fill="#C07858"/>
<path d="M46.719 44.7257C46.3927 44.7255 46.061 44.7064 45.7402 44.6675V47.6992C46.252 60.0274 63.8161 60.0217 64.3243 47.6991V42.8525L57.6229 40.3535C56.2192 41.3224 54.564 41.8873 52.8307 41.9827C51.3204 43.7061 49.0755 44.7257 46.719 44.7257Z" fill="#C07858"/>
<path d="M74.4784 66.9024C69.8338 66.8814 65.9112 70.7248 65.9298 75.4511C65.9298 80.1392 69.7221 83.9576 74.4004 83.9985V83.9998C85.7982 83.619 85.866 67.3833 74.4784 66.9024ZM73.6112 80.309L69.1993 75.8984L71.8283 73.2693C72.27 73.7108 73.1681 74.6095 73.6112 75.0534C74.501 74.164 76.2233 72.4407 77.1285 71.5348L79.7575 74.1638L73.6112 80.309Z" fill="#C07858"/>
<path d="M46.5585 41.0064C48.0602 41.0609 49.5445 40.3474 50.3621 39.1046L50.9468 38.22C51.179 38.2299 52.0904 38.2836 52.3022 38.2807C53.2829 38.2793 54.2319 38.0361 55.0787 37.5634C55.6942 37.2471 56.3734 36.5731 56.8925 36.1138L57.5417 36.3566L64.6867 39.0216C64.8855 35.6068 62.1062 32.563 58.7113 32.1319L57.7189 31.9869L57.2952 31.0775C56.4242 29.208 54.4642 28 52.3022 28C49.8405 28 47.676 29.5648 47.038 31.8048L46.7394 32.8529L45.6789 33.1044C40.8867 34.3507 41.6963 40.7023 46.5585 41.0064Z" fill="#C07858"/>
</svg>
