<svg width="264" height="20" viewBox="0 0 264 20" fill="none" xmlns="http://www.w3.org/2000/svg">
<path d="M140.08 10.0059C139.238 9.20217 137.602 8.63006 136.491 8.34105C134.68 7.86991 133.423 7.6284 132.253 6.78312C131.152 5.9893 131.207 4.26904 132.483 3.67715C133.716 3.10505 134.93 3.1684 136.125 3.86323C136.814 4.26311 137.136 5.02722 137.36 5.64089C137.407 5.76957 137.527 5.85667 137.665 5.85865C138.269 5.86657 139.181 5.86855 140.404 5.86657C140.935 5.86657 141.16 5.61318 141.081 5.10443C140.729 2.88927 139.516 1.36104 137.445 0.523672C136.703 0.222775 135.756 0.0545111 134.605 0.016899C133.036 -0.0325905 131.362 0.266327 130.09 1.18089C128.289 2.47356 127.528 4.24331 127.805 6.49212C128.061 8.57266 129.335 9.73269 131.27 10.5344C132.363 10.9877 133.441 11.2807 135.543 11.9261C136.576 12.2408 137.763 12.8446 137.915 13.9611C138.113 15.424 137.052 16.3287 135.675 16.5385C134.448 16.7246 132.977 16.4949 132.055 15.5645C131.488 14.9905 131.28 14.1709 131.164 13.3613C131.148 13.2465 131.05 13.1593 130.934 13.1593H127.858C127.673 13.1593 127.512 13.2801 127.457 13.4563C127.378 13.7077 127.358 14.0007 127.394 14.3352C127.657 16.8453 129.628 18.7913 131.964 19.5475C134.574 20.3927 137.842 20.0364 139.852 18.1895C142.202 16.0317 142.436 12.2507 140.086 10.0059H140.08Z" fill="white"/>
<path d="M16.6494 13.214C16.612 13.0041 16.4331 12.8517 16.2207 12.8517H13.3495C13.2099 12.8517 13.086 12.9408 13.0408 13.0734C12.8461 13.6495 12.6042 14.3186 12.2837 14.7857C11.2631 16.2704 9.81569 16.8623 7.93962 16.5575C5.98292 16.2427 4.72631 14.564 4.23664 12.727C3.60342 10.3574 3.70175 7.46723 5.06455 5.40451C6.54535 3.1656 9.34175 2.62517 11.4636 4.30386C12.2345 4.91555 12.5413 5.84002 12.9189 6.84366C12.9523 6.93275 13.0349 6.99213 13.1293 6.99807C13.9336 7.04756 14.7536 7.04756 15.5875 7.00401C16.0339 6.98026 16.4803 6.92087 16.4449 6.3745C16.4055 5.76083 16.2639 5.16498 16.0201 4.58694C15.0309 2.22926 13.3358 0.78614 10.9307 0.257592C8.42536 -0.292732 5.6781 0.103184 3.67028 1.69873C0.740149 4.0287 -0.211646 7.51474 0.0381033 11.2126C0.27212 14.6947 2.10296 17.8878 5.31431 19.2853C7.51879 20.2454 10.0163 20.2316 12.2463 19.2735C14.2463 18.4163 15.6838 16.8326 16.4508 14.8234C16.6671 14.2513 16.7339 13.7168 16.6474 13.2159L16.6494 13.214Z" fill="white"/>
<path d="M36.5566 9.78954C36.5055 7.62388 36.0237 5.57303 34.8044 3.76765C33.1014 1.24368 30.5076 -0.0450244 27.4575 0.0262406C24.4113 0.0994851 21.8765 1.51093 20.2954 4.11408C19.1646 5.97489 18.7792 8.04751 18.8283 10.2132C18.8795 12.3788 19.3632 14.4297 20.5805 16.2351C22.2835 18.759 24.8794 20.0497 27.9275 19.9765C30.9736 19.9032 33.5085 18.4918 35.0896 15.8906C36.2223 14.0278 36.6077 11.9572 36.5566 9.79152V9.78954ZM27.8704 16.6508C24.2009 16.726 22.8656 13.2261 22.8007 10.1102C22.7398 6.99635 23.9295 3.443 27.5971 3.36778C31.2666 3.29057 32.6019 6.79245 32.6668 9.90832C32.7297 13.0222 31.538 16.5756 27.8704 16.6508Z" fill="white"/>
<path d="M68.3944 10.0796C67.9421 9.66584 67.3463 9.31149 66.6049 9.01654C64.9727 8.36525 63.0297 8.0406 61.6158 7.51997C60.7427 7.1973 59.7928 6.60342 59.6355 5.62551C59.313 3.64197 61.9167 3.11342 63.2932 3.33118C64.0641 3.45391 64.715 3.77856 65.246 4.30117C65.6197 4.66739 65.7789 5.12072 66.07 5.71855C66.1192 5.81951 66.2194 5.88682 66.3315 5.8888C67.0355 5.91453 67.8379 5.91255 68.7386 5.88286C69.1515 5.87098 69.4937 5.84722 69.5311 5.41765C69.5527 5.15041 69.5527 4.96235 69.5271 4.85149C68.77 1.42484 66.0208 0.0905958 62.7761 0.0252696C60.2471 -0.02422 57.6198 0.92598 56.4517 3.23615C55.8814 4.36452 55.6906 5.50872 55.8834 6.66875C56.5441 10.6517 61.0376 11.0179 64.0877 12.0097C65.2578 12.3897 66.3453 12.9519 66.3197 14.3238C66.2942 15.5709 65.1221 16.4043 63.9127 16.5488C61.5312 16.8359 59.6001 15.9471 59.195 13.3934C59.1773 13.2845 59.0849 13.2053 58.9747 13.2053H56.0033C55.8204 13.2053 55.6611 13.33 55.6159 13.5082C55.2501 14.983 56.3298 16.8775 57.3012 17.8277C58.1213 18.6294 59.1911 19.2193 60.5086 19.5974C63.7573 20.5318 68.2784 19.542 69.6707 16.0361C70.5084 13.9318 70.0778 11.6236 68.3925 10.0796H68.3944Z" fill="white"/>
<path d="M88.4243 12.8695L85.5768 12.7508C85.4588 12.7468 85.3546 12.8201 85.3152 12.9309C85.0065 13.8138 84.7823 14.5759 84.3182 15.156C83.4234 16.2724 82.1944 16.7495 80.631 16.5892C79.4648 16.4684 78.5091 15.9795 77.7618 15.1184C75.2505 12.2262 75.3705 4.57707 79.8817 3.47841C81.6693 3.0429 83.7774 3.72387 84.6388 5.47778C84.8256 5.85589 84.9986 6.27753 85.1579 6.74669C85.2012 6.87339 85.3172 6.95851 85.449 6.96247C86.1038 6.98227 86.8727 6.98227 87.7557 6.96841C88.4813 6.95653 88.8196 6.81796 88.7075 6.04196C88.6328 5.5154 88.4794 4.99872 88.2493 4.49591C87.1854 2.16 85.449 0.744601 83.038 0.245746C81.6005 -0.0531705 80.22 -0.0452532 78.9004 0.2695C74.637 1.28107 72.4345 5.07395 72.2417 9.33401C72.1434 11.464 72.523 13.3862 73.3784 15.1005C74.7628 17.8739 77.3528 19.6734 80.3832 19.9129C83.8128 20.1841 87.0694 18.5252 88.444 15.2886C88.6229 14.8689 89.1323 13.3031 88.6623 12.9527C88.5934 12.9012 88.5108 12.8715 88.4243 12.8695Z" fill="white"/>
<path d="M108.492 9.7897C108.445 7.62205 107.965 5.5712 106.75 3.75989C105.049 1.22998 102.455 -0.0666474 99.4027 0.00263803C96.3527 0.0699438 93.8158 1.48139 92.2288 4.08256C91.0922 5.94337 90.7028 8.01599 90.75 10.1836C90.7972 12.3513 91.277 14.4021 92.4943 16.2134C94.1934 18.7433 96.7892 20.038 99.8413 19.9687C102.891 19.9014 105.428 18.4919 107.015 15.8908C108.152 14.03 108.541 11.9573 108.492 9.7897ZM99.7429 16.6806C96.0557 16.7341 94.7361 13.2084 94.6909 10.0767C94.6457 6.94503 95.865 3.38179 99.5522 3.32834C103.239 3.27687 104.561 6.8025 104.606 9.9342C104.649 13.0639 103.43 16.6272 99.7429 16.6806Z" fill="white"/>
<path d="M38.7169 18.5938C38.713 18.9779 38.6815 19.4926 39.1456 19.5341C39.6904 19.5817 40.3373 19.5915 41.0886 19.5619C41.5153 19.546 41.8083 19.5064 41.9637 19.4411C42.0168 19.4173 42.064 19.3797 42.0974 19.3322C42.1859 19.2055 42.2291 19.0115 42.2272 18.7502C42.2016 15.7373 42.1819 11.7702 42.1682 6.84898C42.1682 6.82918 42.178 6.81136 42.1957 6.79949C42.2232 6.78167 42.2586 6.79157 42.2763 6.8173C43.0983 8.16738 43.8732 9.50755 44.6657 10.7903C46.1622 13.2094 47.8141 15.9452 49.7039 19.0353C49.873 19.3144 50.05 19.4649 50.231 19.4886C51.1808 19.6054 52.1031 19.6074 52.9979 19.4945C53.1906 19.4708 53.34 19.3164 53.3617 19.1224C53.3892 18.871 53.403 18.6413 53.403 18.4315C53.3558 11.796 53.3499 6.0611 53.3853 1.23092C53.3892 0.846879 53.4207 0.332188 52.9566 0.290616C52.4118 0.243106 51.7648 0.233209 51.0136 0.262902C50.5869 0.278739 50.2939 0.318331 50.1385 0.383657C50.0854 0.407412 50.0382 0.445025 50.0048 0.492535C49.9163 0.619228 49.873 0.813228 49.875 1.07453C49.9006 4.08746 49.9202 8.05454 49.934 12.9758C49.934 12.9956 49.9242 13.0154 49.9065 13.0273C49.8789 13.0451 49.8435 13.0352 49.8258 13.0094C49.0038 11.6574 48.229 10.3172 47.4365 9.03641C45.94 6.61538 44.2881 3.8796 42.3983 0.789472C42.2291 0.510351 42.0522 0.359901 41.8712 0.336146C40.9214 0.219351 39.9991 0.217371 39.1043 0.330207C38.9116 0.353962 38.7622 0.508371 38.7405 0.70237C38.713 0.953777 38.6992 1.18341 38.6992 1.39325C38.7464 8.02881 38.7523 13.7637 38.7169 18.5938Z" fill="white"/>
<path d="M125.134 0.487457C125.114 0.42411 125.067 0.37264 125.008 0.346905C124.859 0.2796 124.662 0.245946 124.414 0.243966C123.223 0.232089 122.503 0.236049 122.259 0.257825C121.913 0.289498 121.606 0.37264 121.606 0.780435C121.616 4.95537 121.62 8.83536 121.614 12.4204C121.614 13.8496 121.305 15.1205 120.088 15.9638C118.835 16.8329 116.684 16.7953 115.518 15.6313C114.294 14.4099 114.314 13.1489 114.296 11.2366C114.269 8.08905 114.271 4.83264 114.3 1.46537C114.302 1.11894 114.267 0.80221 114.194 0.51715C114.178 0.459742 114.145 0.408273 114.098 0.372641C113.996 0.299396 113.828 0.259803 113.592 0.249905C112.761 0.216252 111.964 0.22615 111.207 0.277619C110.826 0.303353 110.635 0.52309 110.635 0.932863C110.641 4.38526 110.658 8.29889 110.69 12.6698C110.706 14.9879 111.665 17.5673 113.665 18.7689C115.767 20.0319 118.035 20.2932 120.469 19.5548C123.537 18.6224 125.211 15.95 125.195 12.7708C125.173 8.30681 125.185 4.43277 125.23 1.1526C125.232 0.919006 125.201 0.695312 125.134 0.483497V0.487457Z" fill="white"/>
<path d="M225.278 12.7535H222.466C222.34 12.7535 222.228 12.8386 222.193 12.9614C221.485 15.5111 219.756 16.9146 217.064 16.4276C214.838 16.0238 213.597 13.9135 213.281 11.7696C213.058 10.2513 213.121 8.78246 213.473 7.35716C214.109 4.78172 216.118 2.98426 218.826 3.52667C220.769 3.91664 221.383 5.07272 222.14 6.73755C222.185 6.83653 222.279 6.90185 222.39 6.90779C223.324 6.96322 224.185 6.94936 224.976 6.87018C225.331 6.83455 225.566 6.70192 225.571 6.31986C225.575 5.90612 225.514 5.51813 225.387 5.15586C224.622 2.98228 222.928 1.11949 220.732 0.507802C219.53 0.173252 218.289 0.0663538 217.007 0.191067C210.313 0.838391 208.142 8.01438 209.759 13.6423C210.952 17.7955 214.757 20.3036 219.029 19.7988C221.605 19.494 223.556 18.231 224.881 16.0079C225.449 15.0577 225.691 14.0778 225.613 13.0683C225.599 12.8901 225.451 12.7535 225.274 12.7535H225.278Z" fill="white"/>
<path d="M167.696 0.587684C167.639 0.536215 167.567 0.506521 167.49 0.506521L164.048 0.457031C163.938 0.457031 163.832 0.498602 163.755 0.573826C163.657 0.666866 163.547 0.910356 163.421 1.30825C162.662 3.70751 161.818 6.43339 160.886 9.48393C160.56 10.5509 160.226 11.7486 159.887 13.0749C159.879 13.1026 159.858 13.1264 159.83 13.1343C159.787 13.1462 159.744 13.1204 159.732 13.0769C159.464 12.0574 159.152 10.9904 158.794 9.87588C157.976 7.33608 157.022 4.41224 155.933 1.10237C155.791 0.670825 155.687 0.419419 155.17 0.468908C155.105 0.474847 154.08 0.474847 152.098 0.468908C151.714 0.468908 151.524 0.658947 151.524 1.04299C151.535 8.49413 151.524 14.5299 151.49 19.1463C151.49 19.4214 151.62 19.5679 151.884 19.5877C152.741 19.655 153.59 19.6491 154.432 19.5699C154.607 19.5541 154.739 19.4056 154.741 19.2294V7.09457C154.741 7.09457 154.747 7.07873 154.755 7.07477C154.766 7.07081 154.78 7.07477 154.784 7.08665C156.106 11.2477 157.24 15.1139 158.188 18.689C158.251 18.9305 158.328 19.1661 158.416 19.3898C158.467 19.5224 158.593 19.6095 158.735 19.6095H160.58C160.743 19.6095 160.886 19.5006 160.933 19.3442L164.697 6.90651C164.703 6.88474 164.723 6.8689 164.747 6.8689C164.774 6.8689 164.796 6.89265 164.796 6.92037C164.721 11.7664 164.692 15.8324 164.707 19.1186C164.709 19.4254 164.861 19.5838 165.158 19.5937C166.078 19.6253 166.861 19.6194 167.5 19.5778C167.828 19.556 167.991 19.4036 167.987 19.1166C167.948 13.9815 167.926 7.99924 167.923 1.17166C167.923 0.914315 167.848 0.720315 167.698 0.585703L167.696 0.587684Z" fill="white"/>
<path d="M181.956 16.3115C179.956 16.3075 177.468 16.3095 174.491 16.3194C174.393 16.3194 174.312 16.2382 174.312 16.1393V11.0636C174.312 10.9765 174.383 10.9052 174.469 10.9052C176.688 10.8973 178.578 10.9092 180.141 10.9409C180.515 10.9488 180.829 10.9072 181.085 10.8201C181.205 10.7786 181.291 10.6756 181.313 10.5509C181.409 9.9887 181.409 9.18103 181.313 8.1279C181.285 7.82106 181.101 7.66467 180.762 7.65874C178.426 7.61518 176.326 7.62112 174.464 7.67655C174.464 7.67655 174.46 7.67655 174.458 7.67655C174.369 7.67655 174.298 7.60331 174.298 7.51423V3.86981C174.298 3.78271 174.369 3.71145 174.456 3.71342C177.494 3.71936 179.946 3.71343 181.811 3.69363C182.186 3.68967 182.381 3.50161 182.391 3.12747C182.414 2.24854 182.467 1.42701 182.265 0.781663C182.198 0.569848 181.95 0.464929 181.516 0.468889C179.211 0.482746 176.2 0.482745 172.485 0.474827C172.017 0.474827 171.559 0.492646 171.113 0.530258C170.971 0.544115 170.853 0.645073 170.822 0.785623C170.774 0.983581 170.751 1.17164 170.749 1.34585C170.739 2.36137 170.745 8.23875 170.765 18.98C170.765 19.3818 170.951 19.5818 171.321 19.5818C174.228 19.5778 177.653 19.5818 181.598 19.5897C181.754 19.5897 181.966 19.56 182.233 19.5006C182.292 19.4887 182.342 19.4551 182.377 19.4076C182.68 18.9998 182.507 17.2894 182.454 16.7906C182.42 16.4718 182.253 16.3135 181.954 16.3115H181.956Z" fill="white"/>
<path d="M199.072 4.70592C197.597 1.90679 195.217 0.495344 191.929 0.473569C190.236 0.461691 188.35 0.461691 186.271 0.473569C186.028 0.473569 185.815 0.491385 185.63 0.523058C185.573 0.532956 185.522 0.566609 185.489 0.616099C185.375 0.784364 185.318 0.952628 185.318 1.12287C185.304 6.51921 185.318 12.4263 185.359 18.8441C185.359 19.1846 185.387 19.3865 185.438 19.4518C185.477 19.5013 185.534 19.535 185.597 19.5449C185.86 19.5845 186.085 19.6043 186.269 19.6043C186.838 19.6043 188.665 19.6043 191.75 19.6043C198.082 19.6043 200.661 14.0377 200.071 8.43347C199.909 6.91315 199.577 5.67195 199.072 4.70988V4.70592ZM196.222 9.08277L196.218 10.9495C196.212 13.9426 194.039 16.3657 191.365 16.3597L189.005 16.3558C188.93 16.3558 188.871 16.2944 188.871 16.2211L188.893 3.78541C188.893 3.71217 188.954 3.65278 189.027 3.65278L191.386 3.65674C194.061 3.6607 196.226 6.09162 196.222 9.08475V9.08277Z" fill="white"/>
<path d="M205.931 0.469869L203.412 0.47872C203.137 0.479686 202.915 0.704698 202.916 0.9813L202.979 19.1043C202.98 19.3809 203.203 19.6043 203.478 19.6034L205.997 19.5945C206.272 19.5935 206.494 19.3685 206.493 19.0919L206.43 0.968952C206.429 0.69235 206.205 0.468903 205.931 0.469869Z" fill="white"/>
<path d="M231.372 0.4729H228.876C228.608 0.4729 228.391 0.691814 228.391 0.961858V19.1127C228.391 19.3827 228.608 19.6016 228.876 19.6016H231.372C231.64 19.6016 231.858 19.3827 231.858 19.1127V0.961858C231.858 0.691814 231.64 0.4729 231.372 0.4729Z" fill="white"/>
<path d="M247.875 0.458217C247.79 0.462177 247.121 0.462177 245.869 0.458217C245.157 0.454258 245.261 1.0125 245.255 1.58856C245.214 5.59325 245.226 9.11691 245.289 12.1615C245.292 12.3911 245.318 12.7099 245.363 13.1117C245.363 13.1275 245.355 13.1414 245.344 13.1493C245.326 13.1592 245.302 13.1533 245.292 13.1355C244.526 11.7102 243.625 10.0156 242.817 8.63389C240.614 4.87071 239.153 2.35862 238.433 1.09564C238.299 0.860073 238.134 0.67993 237.938 0.553237C237.887 0.519584 237.828 0.501767 237.769 0.499787C236.882 0.466134 236.036 0.456235 235.23 0.468113C234.852 0.474052 234.644 0.660134 234.642 1.0323C234.614 8.07961 234.614 13.9471 234.642 18.6308C234.646 19.2445 234.545 19.5988 235.257 19.6344C236.005 19.6721 236.756 19.6582 237.511 19.5948C237.824 19.5691 237.981 19.3929 237.985 19.0663C237.989 18.708 237.981 14.632 237.959 6.83841C237.959 6.82258 237.967 6.80872 237.981 6.8008C238.001 6.78694 238.028 6.79288 238.04 6.81466C238.594 7.65796 239.015 8.56857 239.515 9.45938C241.017 12.1318 242.803 15.2219 244.87 18.7298C245.226 19.3335 245.302 19.577 245.965 19.6087C246.742 19.6463 247.458 19.6483 248.116 19.6166C248.311 19.6087 248.48 19.48 248.543 19.292C248.602 19.1158 248.628 18.9079 248.622 18.6644C248.561 16.0494 248.565 10.2453 248.632 1.25599C248.636 0.689829 248.384 0.424563 247.875 0.460196V0.458217Z" fill="white"/>
<path d="M262.808 16.305C260.427 16.3149 257.87 16.3189 255.141 16.3169C255.046 16.3169 254.97 16.2397 254.97 16.1427V10.9621C254.97 10.9324 254.991 10.9087 255.021 10.9067C257.021 10.8315 259.131 10.8453 261.347 10.9483C261.615 10.9601 261.868 10.9364 262.108 10.877C262.273 10.8354 262.395 10.6968 262.415 10.5266C262.509 9.6932 262.496 8.88949 262.374 8.11349C262.332 7.85021 262.183 7.7156 261.923 7.71164C259.546 7.67601 257.288 7.67403 255.151 7.70768C255.151 7.70768 255.149 7.70768 255.147 7.70768C255.037 7.70768 254.946 7.61662 254.946 7.50378V3.85343C254.946 3.77029 255.013 3.70298 255.096 3.70298H262.848C263.044 3.70298 263.211 3.56045 263.243 3.36448C263.369 2.60036 263.365 1.76695 263.235 0.860301C263.225 0.789036 263.19 0.723712 263.137 0.676202C262.985 0.54357 262.802 0.478243 262.59 0.478243C260.012 0.482202 256.799 0.478244 252.952 0.460428C252.095 0.456469 251.391 0.369365 251.397 1.39281C251.422 7.48003 251.438 13.1911 251.444 18.5241C251.444 19.1299 251.347 19.5812 252.059 19.5812C255.585 19.5733 259.125 19.5832 262.677 19.6109C263.082 19.6129 263.306 19.4347 263.347 19.0744C263.402 18.6013 263.398 17.855 263.339 16.8395C263.32 16.4792 263.143 16.301 262.81 16.301L262.808 16.305Z" fill="white"/>
</svg>
