<svg width="447" height="58" viewBox="0 0 447 58" fill="none" xmlns="http://www.w3.org/2000/svg">
<path d="M29 0C13.0096 0 0 13.0096 0 29C0 44.9904 13.0096 58 29 58C44.9904 58 58 44.9904 58 29C58 13.0096 44.9904 0 29 0ZM29 56.4714C13.8271 56.4714 1.52859 44.1729 1.52859 29C1.52859 13.8271 13.8271 1.52859 29 1.52859C44.1729 1.52859 56.4714 13.8271 56.4714 29C56.4714 44.1729 44.1729 56.4714 29 56.4714Z" fill="white"/>
<path d="M49.1043 32.1739C48.2137 31.4694 47.3664 30.7151 46.4758 30.0073C45.7514 29.4324 45.1998 28.6914 45.0369 27.7709C44.8741 26.8372 45.6018 26.0795 45.4357 25.1624C45.2795 24.2851 44.2992 23.6304 43.5848 23.2117C41.9864 22.2746 41.2819 20.6065 39.9361 19.7226C39.6835 19.5564 39.3014 19.3338 38.9492 19.3305C38.6634 19.0347 38.3344 18.7689 37.9622 18.5495C34.6425 16.5923 35.1642 16.4527 32.8946 15.6353C31.0836 14.9806 29.6779 16.9312 27.7838 16.6288C27.7173 16.6189 27.6509 16.6089 27.5844 16.5989C26.1588 16.3995 25.1021 16.8548 23.6466 17.2768C22.6298 17.5726 21.799 17.6457 20.9882 18.3635C20.9384 18.4067 20.8919 18.4465 20.842 18.4864C20.3602 18.5562 20.0245 18.7024 19.659 19.2208C18.9977 19.5232 18.4062 19.6993 17.6685 20.5035C16.7281 21.5236 15.7611 21.7164 14.608 22.371C13.7607 22.8529 11.9629 24.315 12.4115 25.5113C12.6541 26.1626 13.3552 26.3885 13.1758 27.196C13.003 27.9603 12.2088 28.6482 11.7602 29.2763C11.1886 30.0804 10.5307 30.8181 9.99567 31.6522C9.26461 32.792 8.816 33.5198 10.1651 34.3007C10.7301 34.6263 11.5475 34.6496 12.0161 35.1414C12.6076 35.7595 11.7735 36.2546 11.511 36.7763C11.1521 37.4874 11.6838 38.1454 12.3783 38.3182C11.9064 38.1986 11.6904 38.9695 11.7635 39.2985C11.8865 39.8401 12.252 40.2688 12.3018 40.8437C12.365 41.5282 12.1158 42.1862 11.8333 42.7943C11.3216 43.8876 11.9263 44.8247 12.9532 45.4826C15.7046 47.2438 19.114 44.8745 21.9253 46.2403C23.4041 46.958 23.1216 49.2243 22.889 50.5303C22.7993 51.0254 21.9718 54.7007 21.4235 55.5713C23.5104 56.6812 33.845 57.0833 36.3373 55.5514C36.4203 55.0828 35.8189 53.6971 35.6826 53.2253C34.7754 50.0684 35.0313 48.5564 35.7524 47.0345C35.8455 46.9614 35.9252 46.8883 35.9817 46.8185C36.5931 46.0376 37.6798 45.5989 38.6368 45.4627C40.5675 45.1869 42.3386 45.2799 44.2826 45.3663C46.3395 45.4594 47.4428 43.8444 46.6818 41.937C46.4426 41.3355 46.2731 40.8404 47.1338 40.4283C47.9944 40.0163 47.9911 39.2088 47.3165 38.4279C48.237 37.8962 48.3167 37.3313 47.6156 36.5404C47.1138 35.9755 47.1371 35.3308 47.9745 34.9254C48.4264 34.7061 48.865 34.417 49.2339 34.0747C50.0015 33.3636 49.9317 32.8286 49.1076 32.1773L49.1043 32.1739Z" fill="white"/>
<path d="M29.0174 44.5193C37.1366 44.5193 43.7185 37.9374 43.7185 29.8182C43.7185 21.6991 37.1366 15.1172 29.0174 15.1172C20.8983 15.1172 14.3164 21.6991 14.3164 29.8182C14.3164 37.9374 20.8983 44.5193 29.0174 44.5193Z" fill="#6A7784"/>
<path d="M40.6525 33.9284C40.6326 33.7489 40.606 33.5761 40.5727 33.4033V33.3934C40.5727 33.3734 40.5628 33.3568 40.5628 33.3402C40.7854 33.1375 41.0014 32.9182 41.1908 32.6822C42.2077 31.476 42.8224 29.9142 42.8224 28.2094C42.8224 28.02 42.8125 27.8339 42.7958 27.6445C42.8922 28.3025 42.9421 28.9771 42.9421 29.6616C42.9421 30.4026 42.8856 31.1337 42.7726 31.8448C42.6762 32.4729 42.5333 33.0876 42.3539 33.6858C42.3007 33.8586 42.2475 34.0314 42.191 34.2042C42.005 34.7425 41.789 35.2675 41.5397 35.7726C40.7555 37.381 39.6722 38.8165 38.3629 40.0062C38.3496 39.9995 38.333 39.9962 38.3164 39.9929C38.3164 39.9862 38.3164 39.9829 38.3164 39.9763C39.7785 38.6969 40.7023 36.8194 40.7023 34.7259C40.7023 34.46 40.689 34.1942 40.6558 33.9317L40.6525 33.9284Z" fill="white"/>
<path d="M42.525 26.7048H42.5183C41.877 26.5088 41.1958 26.4058 40.4913 26.4058C38.8132 26.4058 37.2713 27.0006 36.0684 27.9875C37.3477 26.7248 38.1386 24.9702 38.1386 23.0329C38.1386 22.7571 38.122 22.4879 38.0921 22.2188C38.7667 24.3289 40.4248 26.0003 42.5217 26.7015L42.525 26.7048Z" fill="white"/>
<path d="M42.4258 25.905C41.7081 23.8547 40.0598 22.243 37.9863 21.5784C37.9863 21.5784 37.9863 21.5684 37.9796 21.5618C37.9796 21.5518 37.9796 21.5385 37.973 21.5285C37.9265 21.3192 37.87 21.1132 37.8068 20.9105C37.1422 18.8402 35.5372 17.1887 33.4902 16.4676C33.4902 16.4676 33.4969 16.4609 33.5002 16.4609C35.0919 17.0026 36.5574 17.8267 37.8301 18.8735C38.3086 19.2622 38.7572 19.6843 39.1792 20.1362C39.2956 20.2592 39.4052 20.3821 39.5149 20.5117C39.917 20.9703 40.2858 21.4588 40.6214 21.9672C41.4156 23.1635 42.0271 24.4894 42.4225 25.905H42.4258Z" fill="white"/>
<path d="M41.8812 27.3939C40.9009 28.5969 40.3128 30.1255 40.3128 31.797C40.3128 32.0628 40.326 32.3187 40.356 32.5745C39.7711 30.7735 38.4751 29.2947 36.797 28.4706C37.1858 28.5404 37.5879 28.5736 37.9966 28.5736C39.4355 28.5736 40.7713 28.1383 41.8812 27.3906V27.3939Z" fill="white"/>
<path d="M39.7669 33.9682C38.7533 35.1744 38.1386 36.7329 38.1386 38.441C38.1386 38.966 38.1951 39.4744 38.308 39.9662C38.3014 39.9729 38.2981 39.9762 38.2914 39.9762C37.8295 37.7132 36.2677 35.8523 34.1875 34.9684C34.7192 35.1013 35.2775 35.1711 35.849 35.1711C37.3045 35.1711 38.6536 34.7291 39.7669 33.9648V33.9682Z" fill="white"/>
<path d="M40.2235 33.2854C39.622 33.1159 38.9906 33.0262 38.336 33.0262C36.6811 33.0262 35.1592 33.601 33.9629 34.568C35.2389 33.3053 36.0265 31.5541 36.0265 29.6201C36.0265 29.4007 36.0165 29.1814 35.9933 28.9688V28.9787C36.6778 30.9759 38.2429 32.5676 40.2235 33.2854Z" fill="white"/>
<path d="M31.6692 43.3551C31.0378 43.478 30.3898 43.5578 29.7285 43.5943C29.4926 43.6043 29.2533 43.611 29.0141 43.611C27.5087 43.611 26.0566 43.3684 24.6975 42.9264C24.6975 42.9098 24.6908 42.8899 24.6875 42.8732C24.6975 42.8566 24.7108 42.8433 24.7207 42.8367C25.3953 43.056 26.1164 43.1723 26.8641 43.1723C28.3362 43.1723 29.7019 42.7137 30.8251 41.9362C31.0611 41.7733 31.287 41.5939 31.4997 41.4012C31.5097 41.4012 31.513 41.3912 31.5196 41.3845H31.5296V41.3779C31.5296 41.3779 31.5495 41.3613 31.5595 41.348C32.2407 41.5706 32.9685 41.6936 33.7228 41.6936C35.4674 41.6936 37.0624 41.0522 38.282 39.9922C38.282 40.0121 38.2919 40.0354 38.2919 40.0586C37.0192 41.1984 35.5338 42.1123 33.9089 42.7237C33.344 42.9397 32.7624 43.1158 32.1643 43.2554C31.9981 43.2919 31.8287 43.3285 31.6592 43.3584L31.6692 43.3551Z" fill="white"/>
<path d="M37.6093 21.8705C36.3831 23.1233 35.6288 24.8413 35.6288 26.7354C35.6288 26.9547 35.6387 27.1674 35.6587 27.3801C35.6587 27.3867 35.6587 27.39 35.6587 27.3934C34.9641 25.3331 33.3292 23.7015 31.2656 23.0136C31.2656 23.0136 31.2656 23.007 31.2656 23.0037C31.9203 23.2097 32.6214 23.3193 33.3458 23.3193C34.9542 23.3193 36.4263 22.7744 37.6059 21.8672L37.6093 21.8705Z" fill="white"/>
<path d="M38.0531 39.9037C37.4118 39.7076 36.7339 39.6046 36.0261 39.6046C34.5573 39.6046 33.1915 40.0599 32.0684 40.8374C33.1683 39.6079 33.8362 37.983 33.8362 36.2018C33.8362 35.843 33.8096 35.4907 33.7565 35.1484C34.3347 37.3416 35.953 39.1128 38.0531 39.9004V39.9037Z" fill="white"/>
<path d="M37.6344 21.4693C37.0661 21.3198 36.468 21.2401 35.8499 21.2401C34.215 21.2401 32.7096 21.805 31.5233 22.7454C32.7661 21.4893 33.5271 19.7646 33.5271 17.8605C33.5271 17.5382 33.5038 17.2225 33.4606 16.9102C34.0654 19.0003 35.6239 20.6884 37.6344 21.466V21.4693Z" fill="white"/>
<path d="M35.5941 28.4194C35.5941 28.4194 35.624 28.3962 35.6373 28.3829C34.3346 29.6489 33.5271 31.4168 33.5271 33.374C33.5271 33.7329 33.5537 34.0852 33.6069 34.4274C33.0652 32.3771 31.6197 30.699 29.719 29.8483C29.7256 29.8483 29.7322 29.855 29.7389 29.855C30.2008 29.9513 30.6826 30.0045 31.1744 30.0045C32.8492 30.0045 34.3911 29.4097 35.5941 28.4227V28.4194Z" fill="white"/>
<path d="M34.9303 27.8613C34.5415 27.7916 34.1394 27.7583 33.7307 27.7583C32.0825 27.7583 30.5705 28.3266 29.3809 29.2836C30.627 28.0242 31.4013 26.2895 31.4013 24.3788C31.4013 24.1761 31.3913 23.9734 31.3747 23.7773C31.9595 25.5718 33.2555 27.0439 34.927 27.8613H34.9303Z" fill="white"/>
<path d="M33.4611 35.0223L33.4478 35.0356C32.1684 36.3016 31.3709 38.0529 31.3709 39.9935C31.3709 40.3225 31.3975 40.6481 31.4407 40.9672C30.8558 38.8637 29.3073 37.159 27.2969 36.3614C27.8618 36.5077 28.4533 36.5841 29.0614 36.5841C30.7329 36.5841 32.2648 35.9992 33.4644 35.0156L33.4611 35.0223Z" fill="white"/>
<path d="M33.3354 16.3988V16.4088C32.6575 16.1861 31.9297 16.0665 31.1721 16.0665C29.7532 16.0665 28.4372 16.4885 27.3406 17.2129C27.0881 17.3758 26.8488 17.5585 26.6262 17.7546C26.6162 17.7546 26.6129 17.7546 26.6029 17.7479C26.573 17.738 26.5464 17.728 26.5165 17.718C26.3437 17.6649 26.1709 17.6184 25.9948 17.5785C25.493 17.4622 24.9713 17.4024 24.433 17.4024C23.0141 17.4024 21.7015 17.8244 20.6016 18.5488C22.9376 16.7677 25.8553 15.7109 29.0154 15.7109C30.5208 15.7109 31.9729 15.9535 33.3321 16.3955L33.3354 16.3988Z" fill="white"/>
<path d="M33.1308 34.6248C32.5991 34.4919 32.0409 34.4221 31.4693 34.4221C29.9607 34.4221 28.5617 34.9006 27.4219 35.7214C28.5583 34.4819 29.2495 32.8304 29.2495 31.0193C29.2495 30.7867 29.2396 30.5574 29.2163 30.3281C29.8344 32.2654 31.2766 33.8339 33.1308 34.6248Z" fill="white"/>
<path d="M31.4643 41.3065C31.4643 41.3065 31.441 41.3297 31.4277 41.3397C30.7831 41.1436 30.1018 41.0373 29.3907 41.0373C27.5963 41.0373 25.9614 41.7119 24.7285 42.8284C26.1474 41.5524 27.0347 39.7048 27.0347 37.6511C27.0347 37.1693 26.9848 36.6974 26.8951 36.2422C26.9117 36.2488 26.9284 36.2522 26.945 36.2555C27.4733 38.6215 29.2113 40.5322 31.4709 41.3065H31.4643Z" fill="white"/>
<path d="M31.1682 22.9775V22.9841C30.5036 22.7714 29.7924 22.6584 29.0614 22.6584C27.4032 22.6584 25.8779 23.24 24.6816 24.207C24.6916 24.2003 24.6949 24.1937 24.7016 24.187C25.9743 22.9243 26.7619 21.1764 26.7619 19.2424C26.7619 19.0031 26.7486 18.7672 26.7253 18.5312C27.4132 20.6314 29.068 22.2896 31.1649 22.9775H31.1682Z" fill="white"/>
<path d="M28.8886 18.2072C30.3075 18.2072 31.6301 17.7818 32.73 17.0508C31.6733 18.2703 31.0352 19.8621 31.0352 21.6033C31.0352 21.806 31.0452 22.0087 31.0652 22.2114C30.457 20.3505 29.0913 18.8352 27.3301 18.0311C27.8319 18.1474 28.3536 18.2072 28.8919 18.2072H28.8886Z" fill="white"/>
<path d="M26.5619 24.8268C28.1935 24.8268 29.6921 24.2652 30.8785 23.3281C29.6423 24.5842 28.8847 26.3056 28.8847 28.2063C28.8847 28.4389 28.8946 28.6682 28.9179 28.8975C28.3231 27.0266 26.954 25.4947 25.1895 24.6872C25.1961 24.6872 25.1994 24.6872 25.2027 24.6872C25.6414 24.777 26.0933 24.8235 26.5585 24.8235L26.5619 24.8268Z" fill="white"/>
<path d="M28.3007 29.3814C27.8388 29.285 27.3603 29.2352 26.8685 29.2352C25.3698 29.2352 23.9808 29.7071 22.8477 30.5112C23.9575 29.2784 24.6288 27.6468 24.6288 25.859C24.6288 25.6962 24.6222 25.53 24.6089 25.3672C24.6089 25.3672 24.6089 25.3694 24.6089 25.3738C25.2436 27.1583 26.5861 28.6038 28.2974 29.3814H28.3007Z" fill="white"/>
<path d="M24.4355 31.3456C26.0837 31.3456 27.5924 30.7773 28.7854 29.8203C27.5359 31.0764 26.765 32.811 26.765 34.7251C26.765 35.2069 26.8148 35.6755 26.9045 36.1307C26.8912 36.1407 26.8746 36.154 26.8647 36.164C26.3429 33.7681 24.5884 31.8341 22.2988 31.0598C22.3121 31.0498 22.3287 31.0365 22.342 31.0199C23.0033 31.2293 23.7011 31.3423 24.4322 31.3423L24.4355 31.3456Z" fill="white"/>
<path d="M26.5087 36.1014C26.5087 36.1014 26.4954 36.1014 26.4887 36.0947C25.9238 35.9452 25.3323 35.8688 24.7242 35.8688C23.1092 35.8688 21.6205 36.4204 20.4375 37.3442C21.6637 36.0881 22.4213 34.3701 22.4213 32.476C22.4213 32.147 22.3981 31.828 22.3549 31.5156C22.9464 33.6158 24.4982 35.3105 26.5087 36.1014Z" fill="white"/>
<path d="M25.9243 18.4604C24.8576 19.6865 24.2096 21.2849 24.2096 23.0362C24.2096 23.1957 24.2163 23.3585 24.2263 23.518V23.528C23.5052 21.491 21.8669 19.8959 19.8066 19.2313V19.2213C20.5211 19.4672 21.292 19.6035 22.0962 19.6035C23.5118 19.6035 24.8277 19.1814 25.9243 18.457V18.4604Z" fill="white"/>
<path d="M18.4671 38.7658C18.0484 38.2773 17.6596 37.7589 17.3074 37.2139C16.4235 35.8448 15.7755 34.3096 15.4199 32.6647C15.4266 32.6647 15.4299 32.6547 15.4365 32.6514C15.4565 32.6348 15.4764 32.6182 15.493 32.6016C15.9848 34.7349 17.4603 36.4928 19.4142 37.3734C19.6169 37.4665 19.8262 37.5495 20.0422 37.6193C20.0422 37.6359 20.0489 37.6526 20.0522 37.6692C20.0522 37.6791 20.0522 37.6924 20.0622 37.7024C20.0921 37.842 20.1253 37.9815 20.1652 38.1178C20.7932 40.3209 22.478 42.0788 24.6413 42.8032L24.6579 42.8797C24.6579 42.8797 24.6413 42.893 24.6313 42.9029C22.9599 42.348 21.4279 41.484 20.1054 40.3808C19.6468 39.9986 19.2148 39.5866 18.8094 39.1512C18.6931 39.0216 18.5735 38.892 18.4605 38.7591L18.4671 38.7658Z" fill="white"/>
<path d="M24.5721 42.3466C24.5721 42.3466 24.5721 42.3366 24.5654 42.33C24.0205 40.3162 22.5916 38.6614 20.7207 37.8074C21.2225 37.9237 21.7442 37.9868 22.2825 37.9868C23.7912 37.9868 25.1902 37.5083 26.33 36.6875C25.1935 37.927 24.5023 39.5785 24.5023 41.3896C24.5023 41.7152 24.5256 42.0342 24.5721 42.3466Z" fill="white"/>
<path d="M24.1556 24.6719C22.8796 25.9346 22.092 27.6859 22.092 29.6199C22.092 29.9455 22.1153 30.2645 22.1585 30.5736C21.5371 28.387 19.8756 26.6391 17.7422 25.8947C18.3935 26.0941 19.0814 26.2038 19.7991 26.2038C21.4507 26.2038 22.9627 25.6289 24.1589 24.6719H24.1556Z" fill="white"/>
<path d="M23.637 24.1862C23.1984 24.0998 22.7464 24.0533 22.2845 24.0533C20.5698 24.0533 18.9981 24.6714 17.7852 25.7015C17.7852 25.7015 17.7918 25.6949 17.7951 25.6916C19.1277 24.4222 19.9551 22.6311 19.9551 20.6506C19.9551 20.4213 19.9451 20.1953 19.9219 19.9727C20.5167 21.8435 21.8758 23.3754 23.6403 24.1862H23.637Z" fill="white"/>
<path d="M22.2246 30.979C22.2246 30.979 22.2246 30.9956 22.2313 31.0022C22.2213 31.0089 22.2147 31.0155 22.2047 31.0255C21.5301 30.8029 20.809 30.6866 20.0614 30.6866C18.6291 30.6866 17.2999 31.1186 16.1934 31.8563C17.1703 30.6533 17.7585 29.1247 17.7585 27.4533C17.7585 26.9116 17.6987 26.3866 17.5791 25.8815C17.589 25.8715 17.599 25.8649 17.6123 25.8516C17.6123 25.8516 17.6223 25.8516 17.6256 25.8516C18.1473 28.2608 19.9151 30.2014 22.2213 30.9757L22.2246 30.979Z" fill="white"/>
<path d="M19.9685 37.1595C19.9685 37.1595 19.9685 37.1495 19.9685 37.1428C19.3637 35.0427 17.7952 33.3413 15.7715 32.567C16.3763 32.7365 17.011 32.8296 17.6656 32.8296C19.1676 32.8296 20.5566 32.3544 21.6898 31.5469C20.5799 32.783 19.9053 34.4146 19.9053 36.2057C19.9053 36.5314 19.9286 36.8504 19.9718 37.1628L19.9685 37.1595Z" fill="white"/>
<path d="M15.3103 27.2167C15.41 26.6351 15.5496 26.0735 15.7224 25.5219C15.7756 25.3491 15.832 25.1796 15.8885 25.0102C16.0713 24.4918 16.284 23.99 16.5266 23.5015C17.2211 22.0926 18.1449 20.8198 19.2481 19.7266C18.1415 20.9594 17.467 22.5943 17.467 24.3788C17.467 24.8806 17.5201 25.3691 17.6232 25.8409L17.6065 25.8575C17.6065 25.8575 17.58 25.8476 17.57 25.8476C17.57 25.8575 17.5766 25.8742 17.58 25.8841C17.5567 25.9041 17.5334 25.924 17.5135 25.9473C17.5035 25.9539 17.4969 25.9572 17.4902 25.9672C17.4902 25.9672 17.4803 25.9772 17.4803 25.9805C16.1477 27.2499 15.3203 29.041 15.3203 31.0248C15.3203 31.5067 15.3701 31.9752 15.4599 32.4305C15.4499 32.4404 15.4432 32.4438 15.4333 32.4537C15.4233 32.4471 15.4067 32.4438 15.3967 32.4404L15.3701 32.4305C15.1907 31.5399 15.0977 30.6128 15.0977 29.669C15.0977 28.835 15.1708 28.0175 15.3137 27.2233L15.3103 27.2167Z" fill="white"/>
<path d="M280.385 28.9418C279.248 27.8558 277.037 27.0828 275.536 26.6923C273.089 26.0557 271.391 25.7293 269.81 24.5872C268.322 23.5145 268.396 21.1901 270.12 20.3903C271.787 19.6173 273.426 19.7029 275.042 20.6417C275.972 21.1821 276.407 22.2146 276.71 23.0438C276.774 23.2176 276.936 23.3353 277.122 23.338C277.938 23.3487 279.171 23.3514 280.824 23.3487C281.541 23.3487 281.844 23.0063 281.738 22.3189C281.262 19.3257 279.623 17.2607 276.825 16.1293C275.823 15.7227 274.542 15.4953 272.988 15.4445C270.867 15.3776 268.606 15.7815 266.887 17.0173C264.453 18.764 263.424 21.1553 263.799 24.194C264.144 27.0052 265.866 28.5727 268.481 29.656C269.958 30.2686 271.415 30.6644 274.255 31.5364C275.65 31.9617 277.255 32.7776 277.46 34.2862C277.728 36.2629 276.293 37.4853 274.433 37.7689C272.775 38.0203 270.787 37.71 269.541 36.4528C268.776 35.6771 268.494 34.5697 268.337 33.4757C268.316 33.3206 268.183 33.2029 268.027 33.2029H263.871C263.621 33.2029 263.403 33.366 263.329 33.6041C263.222 33.9438 263.196 34.3397 263.244 34.7917C263.6 38.1835 266.262 40.8128 269.419 41.8346C272.945 42.9768 277.361 42.4953 280.077 39.9997C283.252 37.0841 283.569 31.9751 280.393 28.9418H280.385Z" fill="white"/>
<path d="M105.497 33.2765C105.447 32.9929 105.205 32.787 104.918 32.787H101.038C100.85 32.787 100.682 32.9073 100.621 33.0865C100.358 33.8649 100.031 34.769 99.598 35.4003C98.2189 37.4064 96.2632 38.2062 93.7282 37.7943C91.0843 37.369 89.3863 35.1007 88.7246 32.6184C87.869 29.4166 88.0019 25.5113 89.8433 22.7241C91.8442 19.6989 95.6228 18.9686 98.4899 21.2369C99.5315 22.0635 99.9461 23.3126 100.456 24.6688C100.501 24.7891 100.613 24.8694 100.741 24.8774C101.827 24.9443 102.935 24.9443 104.062 24.8854C104.665 24.8533 105.268 24.7731 105.221 24.0348C105.168 23.2056 104.976 22.4005 104.647 21.6194C103.31 18.4337 101.02 16.4837 97.7698 15.7695C94.3845 15.0259 90.6724 15.5609 87.9594 17.7168C84.0001 20.8651 82.714 25.5755 83.0515 30.5722C83.3677 35.2772 85.8416 39.5918 90.1808 41.4802C93.1595 42.7775 96.5342 42.7588 99.5475 41.4642C102.25 40.306 104.192 38.1661 105.229 35.4511C105.521 34.6781 105.611 33.9559 105.494 33.2791L105.497 33.2765Z" fill="white"/>
<path d="M132.394 28.6493C132.325 25.723 131.674 22.9519 130.026 20.5124C127.725 17.1019 124.22 15.3606 120.099 15.4569C115.983 15.5559 112.558 17.4631 110.421 20.9805C108.894 23.4949 108.373 26.2954 108.439 29.2217C108.508 32.148 109.162 34.9192 110.807 37.3586C113.108 40.7691 116.615 42.5131 120.734 42.4141C124.85 42.3151 128.275 40.408 130.412 36.8932C131.942 34.3762 132.463 31.5783 132.394 28.652V28.6493ZM120.657 37.9204C115.699 38.022 113.894 33.2929 113.807 29.0826C113.724 24.8751 115.332 20.0737 120.288 19.9721C125.246 19.8678 127.05 24.5996 127.138 28.8098C127.223 33.0173 125.613 37.8187 120.657 37.9204Z" fill="white"/>
<path d="M175.416 29.0412C174.805 28.4822 174 28.0034 172.998 27.6048C170.792 26.7248 168.167 26.2861 166.257 25.5826C165.077 25.1466 163.793 24.3441 163.581 23.0228C163.145 20.3426 166.663 19.6284 168.523 19.9226C169.565 20.0885 170.444 20.5271 171.162 21.2333C171.667 21.7281 171.882 22.3407 172.275 23.1485C172.342 23.2849 172.477 23.3759 172.629 23.3785C173.58 23.4133 174.664 23.4106 175.881 23.3705C176.439 23.3545 176.901 23.3224 176.952 22.7419C176.981 22.3808 176.981 22.1267 176.946 21.9769C175.923 17.3467 172.209 15.5439 167.824 15.4556C164.407 15.3887 160.857 16.6727 159.279 19.7942C158.508 21.3189 158.25 22.865 158.511 24.4324C159.404 29.8142 165.475 30.3091 169.597 31.6492C171.178 32.1628 172.647 32.9224 172.613 34.7761C172.578 36.4612 170.994 37.5874 169.36 37.7826C166.142 38.1705 163.533 36.9695 162.985 33.5189C162.962 33.3718 162.837 33.2648 162.688 33.2648H158.673C158.426 33.2648 158.21 33.4333 158.149 33.674C157.655 35.6668 159.114 38.2267 160.427 39.5106C161.535 40.5939 162.98 41.391 164.761 41.9019C169.15 43.1644 175.259 41.827 177.14 37.0898C178.272 34.2465 177.691 31.1276 175.413 29.0412H175.416Z" fill="white"/>
<path d="M202.481 32.8136L198.633 32.6531C198.473 32.6478 198.333 32.7467 198.279 32.8965C197.862 34.0895 197.559 35.1193 196.932 35.9031C195.723 37.4117 194.062 38.0563 191.95 37.8397C190.374 37.6765 189.083 37.0158 188.073 35.8522C184.68 31.9443 184.842 21.6086 190.938 20.1241C193.353 19.5356 196.202 20.4558 197.365 22.8257C197.618 23.3366 197.852 23.9063 198.067 24.5403C198.125 24.7115 198.282 24.8265 198.46 24.8318C199.345 24.8586 200.384 24.8586 201.577 24.8399C202.558 24.8238 203.015 24.6366 202.863 23.588C202.762 22.8765 202.555 22.1784 202.244 21.499C200.806 18.3426 198.46 16.4301 195.202 15.756C193.26 15.3521 191.395 15.3628 189.612 15.7881C183.851 17.155 180.875 22.28 180.614 28.0363C180.481 30.9145 180.994 33.5117 182.15 35.8282C184.021 39.5756 187.52 42.0071 191.615 42.3307C196.249 42.6972 200.65 40.4557 202.507 36.0823C202.749 35.5152 203.437 33.3994 202.802 32.926C202.709 32.8564 202.597 32.8163 202.481 32.8136Z" fill="white"/>
<path d="M237.705 28.6421C237.641 25.7131 236.993 22.942 235.351 20.4945C233.052 17.076 229.547 15.324 225.423 15.4176C221.302 15.5086 217.874 17.4157 215.73 20.9305C214.194 23.4449 213.668 26.2454 213.732 29.1744C213.795 32.1034 214.444 34.8745 216.089 37.322C218.384 40.7405 221.892 42.4899 226.016 42.3962C230.137 42.3053 233.565 40.4008 235.71 36.886C237.245 34.3717 237.772 31.5711 237.705 28.6421ZM225.883 37.9533C220.901 38.0255 219.118 33.2616 219.057 29.03C218.996 24.7983 220.643 19.9836 225.625 19.9114C230.608 19.8418 232.393 24.6058 232.454 28.8374C232.513 33.0663 230.865 37.8811 225.883 37.9533Z" fill="white"/>
<path d="M135.315 40.5458C135.31 41.0647 135.267 41.7602 135.894 41.8163C136.63 41.8805 137.504 41.8939 138.52 41.8538C139.096 41.8324 139.492 41.7789 139.702 41.6906C139.774 41.6585 139.838 41.6077 139.883 41.5435C140.002 41.3723 140.061 41.1102 140.058 40.7571C140.024 36.686 139.997 31.3256 139.978 24.6759C139.978 24.6491 139.992 24.625 140.016 24.609C140.053 24.5849 140.101 24.5983 140.124 24.6331C141.235 26.4573 142.282 28.2682 143.353 30.0015C145.375 33.2702 147.607 36.9668 150.161 41.1423C150.389 41.5194 150.628 41.7227 150.873 41.7548C152.156 41.9126 153.403 41.9153 154.612 41.7628C154.872 41.7307 155.074 41.5221 155.103 41.26C155.14 40.9203 155.159 40.61 155.159 40.3264C155.095 31.3603 155.087 23.6113 155.135 17.0846C155.14 16.5657 155.183 15.8702 154.556 15.8141C153.82 15.7499 152.946 15.7365 151.931 15.7766C151.354 15.798 150.958 15.8515 150.748 15.9398C150.676 15.9719 150.613 16.0227 150.567 16.0869C150.448 16.2581 150.389 16.5202 150.392 16.8733C150.427 20.9444 150.453 26.3049 150.472 32.9545C150.472 32.9813 150.458 33.008 150.434 33.0241C150.397 33.0482 150.349 33.0348 150.326 33C149.215 31.1731 148.168 29.3622 147.097 27.6316C145.075 24.3602 142.843 20.6636 140.289 16.4881C140.061 16.111 139.822 15.9077 139.577 15.8756C138.294 15.7178 137.047 15.7151 135.838 15.8676C135.578 15.8997 135.376 16.1083 135.347 16.3704C135.31 16.7101 135.291 17.0204 135.291 17.304C135.355 26.2701 135.363 34.0191 135.315 40.5458Z" fill="white"/>
<path d="M260.193 16.078C260.167 15.9924 260.103 15.9228 260.023 15.888C259.821 15.7971 259.555 15.7516 259.221 15.749C257.61 15.7329 256.638 15.7383 256.308 15.7677C255.841 15.8105 255.426 15.9228 255.426 16.4738C255.439 22.1151 255.445 27.3578 255.437 32.202C255.437 34.1332 255.02 35.8505 253.375 36.99C251.682 38.1643 248.775 38.1134 247.199 36.5406C245.547 34.8902 245.573 33.1863 245.549 30.6024C245.512 26.3494 245.515 21.9493 245.555 17.3993C245.557 16.9312 245.509 16.5033 245.411 16.1181C245.39 16.0405 245.345 15.971 245.281 15.9228C245.143 15.8239 244.917 15.7704 244.598 15.757C243.474 15.7115 242.398 15.7249 241.375 15.7944C240.859 15.8292 240.602 16.1261 240.602 16.6798C240.61 21.3448 240.633 26.6329 240.676 32.539C240.697 35.6713 241.994 39.1566 244.696 40.7803C247.537 42.4868 250.601 42.8399 253.89 41.8422C258.036 40.5823 260.297 36.9713 260.276 32.6754C260.246 26.6436 260.262 21.409 260.323 16.9767C260.326 16.6611 260.284 16.3588 260.193 16.0726V16.078Z" fill="white"/>
<path d="M210.057 15.7897L206.685 15.7956C206.28 15.7963 205.952 16.1274 205.953 16.5351L205.995 41.0689C205.996 41.4766 206.325 41.8066 206.73 41.8058L210.102 41.7999C210.507 41.7992 210.835 41.4681 210.834 41.0604L210.791 16.5266C210.791 16.1189 210.462 15.789 210.057 15.7897Z" fill="white"/>
<path d="M395.508 32.6444H391.708C391.538 32.6444 391.387 32.7594 391.339 32.9252C390.382 36.3704 388.047 38.2669 384.409 37.6089C381.401 37.0632 379.724 34.2118 379.297 31.315C378.996 29.2633 379.081 27.2786 379.557 25.3527C380.415 21.8727 383.131 19.4439 386.79 20.1769C389.415 20.7038 390.244 22.2659 391.267 24.5155C391.328 24.6492 391.456 24.7375 391.605 24.7455C392.867 24.8204 394.031 24.8017 395.099 24.6947C395.58 24.6465 395.896 24.4673 395.904 23.9511C395.909 23.392 395.827 22.8678 395.654 22.3783C394.621 19.4413 392.333 16.9242 389.365 16.0977C387.741 15.6456 386.064 15.5012 384.332 15.6697C375.287 16.5444 372.353 26.2408 374.537 33.8454C376.15 39.4572 381.292 42.8463 387.064 42.1642C390.545 41.7522 393.18 40.0457 394.971 37.0418C395.739 35.7579 396.066 34.4338 395.96 33.0697C395.941 32.8289 395.742 32.6444 395.503 32.6444H395.508Z" fill="white"/>
<path d="M317.703 16.2C317.626 16.1304 317.527 16.0903 317.424 16.0903L312.774 16.0234C312.625 16.0234 312.481 16.0796 312.378 16.1813C312.245 16.307 312.096 16.636 311.926 17.1736C310.9 20.4156 309.76 24.0988 308.501 28.2208C308.06 29.6625 307.608 31.2808 307.151 33.073C307.14 33.1104 307.111 33.1425 307.074 33.1532C307.015 33.1693 306.957 33.1345 306.941 33.0756C306.58 31.6981 306.157 30.2563 305.674 28.7504C304.568 25.3186 303.279 21.3678 301.807 16.8954C301.616 16.3123 301.475 15.9726 300.776 16.0395C300.689 16.0475 299.304 16.0475 296.626 16.0395C296.108 16.0395 295.85 16.2963 295.85 16.8152C295.866 26.8834 295.85 35.039 295.805 41.2768C295.805 41.6486 295.98 41.8465 296.336 41.8732C297.495 41.9642 298.643 41.9562 299.78 41.8492C300.016 41.8278 300.194 41.6272 300.197 41.3891V24.9922C300.197 24.9922 300.205 24.9708 300.216 24.9655C300.232 24.9601 300.25 24.9655 300.256 24.9815C302.041 30.6041 303.574 35.8281 304.855 40.6589C304.94 40.9852 305.044 41.3035 305.163 41.6058C305.232 41.785 305.403 41.9027 305.594 41.9027H308.086C308.307 41.9027 308.501 41.7556 308.565 41.5442L313.651 24.7381C313.659 24.7087 313.685 24.6873 313.717 24.6873C313.754 24.6873 313.783 24.7194 313.783 24.7568C313.682 31.3049 313.643 36.799 313.664 41.2393C313.666 41.6539 313.871 41.8679 314.272 41.8813C315.516 41.9241 316.573 41.916 317.437 41.8599C317.881 41.8304 318.101 41.6245 318.096 41.2366C318.043 34.2981 318.014 26.2146 318.008 16.9891C318.008 16.6413 317.907 16.3792 317.705 16.1973L317.703 16.2Z" fill="white"/>
<path d="M336.97 37.4539C334.268 37.4485 330.906 37.4512 326.883 37.4646C326.75 37.4646 326.642 37.3549 326.642 37.2212V30.3629C326.642 30.2452 326.737 30.1489 326.854 30.1489C329.851 30.1382 332.405 30.1542 334.517 30.197C335.022 30.2077 335.448 30.1515 335.793 30.0338C335.955 29.9777 336.072 29.8386 336.101 29.6701C336.231 28.9104 336.231 27.8191 336.101 26.396C336.064 25.9814 335.814 25.7701 335.357 25.7621C332.2 25.7033 329.362 25.7113 326.846 25.7862C326.846 25.7862 326.841 25.7862 326.838 25.7862C326.719 25.7862 326.623 25.6872 326.623 25.5668V20.6424C326.623 20.5247 326.719 20.4284 326.835 20.4311C330.941 20.4391 334.254 20.4311 336.773 20.4044C337.281 20.399 337.544 20.1449 337.557 19.6394C337.589 18.4517 337.661 17.3417 337.387 16.4696C337.297 16.1834 336.962 16.0417 336.375 16.047C333.261 16.0657 329.192 16.0657 324.173 16.055C323.541 16.055 322.921 16.0791 322.318 16.1299C322.127 16.1487 321.967 16.2851 321.925 16.475C321.861 16.7425 321.829 16.9966 321.827 17.232C321.813 18.6042 321.821 26.5458 321.848 41.0596C321.848 41.6026 322.1 41.8728 322.6 41.8728C326.527 41.8674 331.156 41.8728 336.487 41.8835C336.696 41.8835 336.983 41.8433 337.345 41.7631C337.424 41.747 337.491 41.7016 337.539 41.6374C337.948 41.0864 337.714 38.7753 337.642 38.1012C337.597 37.6706 337.371 37.4566 336.967 37.4539H336.97Z" fill="white"/>
<path d="M360.099 21.7699C358.106 17.9877 354.891 16.0805 350.448 16.0511C348.16 16.0351 345.612 16.0351 342.804 16.0511C342.474 16.0511 342.187 16.0752 341.937 16.118C341.86 16.1313 341.791 16.1768 341.746 16.2437C341.592 16.4711 341.515 16.6984 341.515 16.9285C341.496 24.2201 341.515 32.2019 341.571 40.8738C341.571 41.3338 341.608 41.6067 341.677 41.6949C341.73 41.7618 341.807 41.8073 341.892 41.8207C342.248 41.8742 342.551 41.9009 342.801 41.9009C343.569 41.9009 346.037 41.9009 350.207 41.9009C358.763 41.9009 362.246 34.3792 361.449 26.8067C361.231 24.7524 360.782 23.0753 360.099 21.7753V21.7699ZM356.249 27.684L356.244 30.2064C356.236 34.2508 353.3 37.5248 349.686 37.5168L346.497 37.5115C346.396 37.5115 346.316 37.4286 346.316 37.3296L346.346 20.5261C346.346 20.4272 346.428 20.3469 346.526 20.3469L349.715 20.3523C353.329 20.3576 356.254 23.6423 356.249 27.6867V27.684Z" fill="white"/>
<path d="M369.365 16.0521L365.961 16.064C365.59 16.0653 365.29 16.3694 365.291 16.7431L365.376 41.2313C365.378 41.6051 365.68 41.907 366.051 41.9057L369.455 41.8937C369.826 41.8924 370.126 41.5884 370.125 41.2146L370.04 16.7265C370.039 16.3527 369.737 16.0508 369.365 16.0521Z" fill="white"/>
<path d="M403.743 16.0547H400.371C400.009 16.0547 399.715 16.3505 399.715 16.7154V41.2411C399.715 41.606 400.009 41.9018 400.371 41.9018H403.743C404.106 41.9018 404.4 41.606 404.4 41.2411V16.7154C404.4 16.3505 404.106 16.0547 403.743 16.0547Z" fill="white"/>
<path d="M426.041 16.0329C425.927 16.0382 425.023 16.0382 423.331 16.0329C422.369 16.0275 422.51 16.7818 422.502 17.5602C422.446 22.9714 422.462 27.7327 422.547 31.8466C422.552 32.1569 422.587 32.5875 422.648 33.1305C422.648 33.1519 422.637 33.1707 422.621 33.1814C422.597 33.1947 422.565 33.1867 422.552 33.1626C421.516 31.2367 420.299 28.9471 419.207 27.08C416.231 21.9951 414.256 18.6007 413.284 16.8942C413.103 16.5758 412.88 16.3324 412.614 16.1612C412.545 16.1158 412.465 16.0917 412.386 16.089C411.187 16.0435 410.045 16.0302 408.955 16.0462C408.445 16.0542 408.163 16.3057 408.161 16.8086C408.124 26.331 408.124 34.2593 408.161 40.588C408.166 41.4172 408.031 41.896 408.992 41.9442C410.002 41.995 411.017 41.9763 412.038 41.8907C412.46 41.8559 412.673 41.6179 412.678 41.1765C412.683 40.6924 412.673 35.1848 412.643 24.6539C412.643 24.6325 412.654 24.6138 412.673 24.6031C412.699 24.5844 412.736 24.5924 412.752 24.6218C413.502 25.7613 414.07 26.9917 414.745 28.1954C416.775 31.8065 419.188 35.9819 421.981 40.7218C422.462 41.5376 422.565 41.8666 423.461 41.9094C424.511 41.9602 425.478 41.9629 426.368 41.9201C426.631 41.9094 426.86 41.7355 426.945 41.4814C427.024 41.2434 427.059 40.9625 427.051 40.6335C426.968 37.1 426.974 29.2573 427.064 17.1108C427.069 16.3458 426.729 15.9874 426.041 16.0355V16.0329Z" fill="white"/>
<path d="M446.219 37.4376C443.001 37.451 439.546 37.4563 435.858 37.4536C435.731 37.4536 435.627 37.3493 435.627 37.2182V30.2181C435.627 30.178 435.656 30.1459 435.696 30.1432C438.399 30.0416 441.25 30.0603 444.244 30.1994C444.606 30.2155 444.949 30.1834 445.273 30.1031C445.496 30.0469 445.661 29.8597 445.687 29.6297C445.815 28.5036 445.796 27.4176 445.631 26.369C445.576 26.0133 445.374 25.8314 445.023 25.826C441.81 25.7779 438.76 25.7752 435.872 25.8207C435.872 25.8207 435.869 25.8207 435.866 25.8207C435.717 25.8207 435.595 25.6976 435.595 25.5452V20.6127C435.595 20.5004 435.686 20.4094 435.797 20.4094H446.272C446.538 20.4094 446.763 20.2169 446.806 19.952C446.976 18.9195 446.971 17.7934 446.795 16.5683C446.782 16.4721 446.734 16.3838 446.662 16.3196C446.458 16.1404 446.211 16.0521 445.924 16.0521C442.44 16.0574 438.098 16.0521 432.901 16.028C431.742 16.0227 430.791 15.905 430.799 17.2879C430.833 25.5131 430.855 33.23 430.863 40.4361C430.863 41.2546 430.732 41.8645 431.694 41.8645C436.459 41.8538 441.242 41.8671 446.041 41.9046C446.588 41.9073 446.891 41.6665 446.947 41.1797C447.021 40.5404 447.016 39.532 446.936 38.1598C446.91 37.673 446.67 37.4322 446.221 37.4322L446.219 37.4376Z" fill="white"/>
</svg>
