<svg width="112" height="112" viewBox="0 0 112 112" fill="none" xmlns="http://www.w3.org/2000/svg">
<circle cx="56" cy="56" r="55.5" fill="#FAB89B" fill-opacity="0.22" stroke="#C07858"/>
<path d="M41.2246 28V47.7006H51.5626L56.0007 51.5047L60.4388 47.7006H70.7769V28H41.2246ZM51.0749 39.4909H47.791V36.2097H51.0749V39.4909ZM57.6427 39.4909H54.3588V36.2097H57.6427V39.4909ZM64.2104 39.4909H60.9267V36.2097H64.2104V39.4909Z" fill="#C07858"/>
<path d="M46.7313 66.0612C48.5717 64.4894 49.7417 62.1546 49.7417 59.5504C49.7417 54.8285 45.9002 50.9871 41.1784 50.9871C36.4567 50.9871 32.6152 54.8285 32.6152 59.5504C32.6152 62.1546 33.7852 64.4894 35.6255 66.0612C31.126 68.1605 28 72.727 28 78.0108V83.9999H54.3568V78.0108C54.3568 72.7271 51.2307 68.1605 46.7313 66.0612Z" fill="#C07858"/>
<path d="M76.3739 66.0615C78.2143 64.4897 79.3843 62.1548 79.3843 59.5506C79.3843 54.8288 75.5428 50.9873 70.821 50.9873C66.0991 50.9873 62.2577 54.8288 62.2577 59.5506C62.2577 62.1548 63.4278 64.4897 65.268 66.0615C60.7687 68.1607 57.6426 72.7273 57.6426 78.011V84.0002H83.9993V78.011C83.9993 72.7273 80.8733 68.1607 76.3739 66.0615Z" fill="#C07858"/>
</svg>
